# xmcd
# 
# Track frame offsets:
#     150
#     15101
#     28978
#     44220
#     57782
#     79230
#     101919
#     119607
#     133560
#     151613
#     165457
# 
# Disc length: 2353
# 
# Revision: 0
# Processed by: cddbd v1.5.2PL0 Copyright (c) Steve Scherf et al.
# Submitted via: fre:ac v1.1beta1pre3
# 
DISCID=89092f0b
DTITLE=Planet Full of Blues - Planet Full of Blues
DYEAR=2008
DGENRE=Blues
TTITLE0=Pain Will Melt Away
TTITLE1=Got the Blues
TTITLE2=Planet Full of Blues
TTITLE3=You Can't Always Be Right
TTITLE4=Coming From a Friend
TTITLE5=Miss Her Smile
TTITLE6=Money
TTITLE7=Dirty Pain
TTITLE8=When Will You See Things My Way
TTITLE9=Man Tamer
TTITLE10=E-Jam
EXTD=
EXTT0=
EXTT1=
EXTT2=
EXTT3=
EXTT4=
EXTT5=
EXTT6=
EXTT7=
EXTT8=
EXTT9=
EXTT10=
PLAYORDER=
